STARTFONT 2.1
FONT -sni-97480m2-Medium-OT-Normal--16-160-75-75-C-80--
SIZE 16 75 75
FONTBOUNDINGBOX 8 16 0 -3

STARTPROPERTIES 23
FONTNAME_REGISTRY ""
FAMILY_NAME "97480m2"
FOUNDRY "sni"
WEIGHT_NAME "Medium"
SLANT "OT"
SETWIDTH_NAME "Normal"
ADD_STYLE_NAME ""
PIXEL_SIZE 16
POINT_SIZE 160
RESOLUTION_X 75
RESOLUTION_Y 75
SPACING "C"
AVERAGE_WIDTH 80
CHARSET_REGISTRY ""
CHARSET_ENCODING ""
FACE_NAME "97801-480 M2"
COPYRIGHT "Copyright (C) Siemens Nixdorf Informationssysteme AG 1992, All Rights Reserved"
X_HEIGHT 6
WEIGHT 10
QUAD_WIDTH 8
DEFAULT_CHAR 0
FONT_DESCENT 3
FONT_ASCENT 13
ENDPROPERTIES

CHARS 59

STARTCHAR C186=0x0ba
ENCODING 0
SWIDTH 714 0
DWIDTH 8 0
BBX 8 16 0 -3
BITMAP
00
14
08
00
38
08
08
08
08
08
08
00
00
00
00
00
ENDCHAR

STARTCHAR C188=0x0bc
ENCODING 1
SWIDTH 714 0
DWIDTH 8 0
BBX 8 16 0 -3
BITMAP
00
00
22
00
66
22
22
22
22
22
72
02
02
0C
00
00
ENDCHAR

STARTCHAR C202=0x0ca
ENCODING 2
SWIDTH 714 0
DWIDTH 8 0
BBX 8 16 0 -3
BITMAP
00
00
00
00
36
49
49
4F
48
49
36
00
00
00
00
00
ENDCHAR

STARTCHAR C228=0x0e4
ENCODING 3
SWIDTH 714 0
DWIDTH 8 0
BBX 8 16 0 -3
BITMAP
00
00
71
21
21
21
21
21
21
21
76
00
00
00
00
00
ENDCHAR

STARTCHAR C231=0x0e7
ENCODING 4
SWIDTH 714 0
DWIDTH 8 0
BBX 8 16 0 -3
BITMAP
00
00
1F
24
44
44
47
44
44
24
1F
00
00
00
00
00
ENDCHAR

STARTCHAR C245=0x0f5
ENCODING 5
SWIDTH 714 0
DWIDTH 8 0
BBX 8 16 0 -3
BITMAP
00
00
70
48
48
70
44
4F
44
44
43
00
00
00
00
00
ENDCHAR

STARTCHAR C246=0x0f6
ENCODING 6
SWIDTH 714 0
DWIDTH 8 0
BBX 8 16 0 -3
BITMAP
00
00
00
3F
54
14
14
14
14
14
14
00
00
00
00
00
ENDCHAR

STARTCHAR C251=0x0fb
ENCODING 7
SWIDTH 714 0
DWIDTH 8 0
BBX 8 16 0 -3
BITMAP
00
00
00
00
00
00
00
40
40
40
78
00
00
00
00
00
ENDCHAR

STARTCHAR C252=0x0fc
ENCODING 8
SWIDTH 714 0
DWIDTH 8 0
BBX 8 16 0 -3
BITMAP
00
00
00
00
00
00
00
08
08
08
78
00
00
00
00
00
ENDCHAR

STARTCHAR C255=0x0ff
ENCODING 9
SWIDTH 714 0
DWIDTH 8 0
BBX 8 16 0 -3
BITMAP
00
00
0E
11
7C
10
10
10
10
10
70
00
00
00
00
00
ENDCHAR

STARTCHAR C463=0x1cf
ENCODING 10
SWIDTH 714 0
DWIDTH 8 0
BBX 8 16 0 -3
BITMAP
00
00
38
44
22
10
34
42
42
42
3C
00
00
00
00
00
ENDCHAR

STARTCHAR C475=0x1db
ENCODING 11
SWIDTH 714 0
DWIDTH 8 0
BBX 8 16 0 -3
BITMAP
00
00
1E
20
40
40
7E
40
40
20
1E
00
00
00
00
00
ENDCHAR

STARTCHAR C476=0x1dc
ENCODING 12
SWIDTH 714 0
DWIDTH 8 0
BBX 8 16 0 -3
BITMAP
00
00
10
08
04
02
04
08
10
00
1E
00
00
00
00
00
ENDCHAR

STARTCHAR C477=0x1dd
ENCODING 13
SWIDTH 714 0
DWIDTH 8 0
BBX 8 16 0 -3
BITMAP
00
00
02
04
08
10
08
04
02
00
1E
00
00
00
00
00
ENDCHAR

STARTCHAR C478=0x1de
ENCODING 14
SWIDTH 714 0
DWIDTH 8 0
BBX 8 16 0 -3
BITMAP
00
00
3C
42
42
42
7E
42
42
42
3C
00
00
00
00
00
ENDCHAR

STARTCHAR C479=0x1df
ENCODING 15
SWIDTH 714 0
DWIDTH 8 0
BBX 8 16 0 -3
BITMAP
00
00
07
04
04
04
04
64
14
0C
04
00
00
00
00
00
ENDCHAR

STARTCHAR C495=0x1ef
ENCODING 16
SWIDTH 714 0
DWIDTH 8 0
BBX 8 16 0 -3
BITMAP
00
00
00
00
75
27
25
25
25
00
00
00
00
00
00
00
ENDCHAR

STARTCHAR C496=0x1f0
ENCODING 17
SWIDTH 714 0
DWIDTH 8 0
BBX 8 16 0 -3
BITMAP
00
10
30
10
10
7D
02
08
20
4E
11
0E
11
0E
00
00
ENDCHAR

STARTCHAR C497=0x1f1
ENCODING 18
SWIDTH 714 0
DWIDTH 8 0
BBX 8 16 0 -3
BITMAP
00
7C
08
18
44
39
02
08
20
4E
11
0E
11
0E
00
00
ENDCHAR

STARTCHAR C498=0x1f2
ENCODING 19
SWIDTH 714 0
DWIDTH 8 0
BBX 8 16 0 -3
BITMAP
00
78
40
78
04
79
02
08
20
4E
11
0E
11
0E
00
00
ENDCHAR

STARTCHAR C499=0x1f3
ENCODING 20
SWIDTH 714 0
DWIDTH 8 0
BBX 8 16 0 -3
BITMAP
00
7C
04
08
10
11
02
08
20
4E
11
0E
11
0E
00
00
ENDCHAR

STARTCHAR C503=0x1f7
ENCODING 21
SWIDTH 714 0
DWIDTH 8 0
BBX 8 16 0 -3
BITMAP
00
00
40
40
40
48
40
40
40
40
7F
00
00
00
00
00
ENDCHAR

STARTCHAR C504=0x1f8
ENCODING 22
SWIDTH 714 0
DWIDTH 8 0
BBX 8 16 0 -3
BITMAP
00
00
10
10
10
12
10
10
10
10
0E
00
00
00
00
00
ENDCHAR

STARTCHAR C510=0x1fe
ENCODING 23
SWIDTH 714 0
DWIDTH 8 0
BBX 8 16 0 -3
BITMAP
00
80
80
00
5E
61
41
41
41
41
41
00
00
00
00
00
ENDCHAR

STARTCHAR C511=0x1ff
ENCODING 24
SWIDTH 714 0
DWIDTH 8 0
BBX 8 16 0 -3
BITMAP
00
00
12
12
12
12
12
12
12
12
12
00
00
00
00
00
ENDCHAR

STARTCHAR C517=0x205
ENCODING 25
SWIDTH 714 0
DWIDTH 8 0
BBX 8 16 0 -3
BITMAP
00
00
00
00
00
00
00
00
00
00
00
00
00
00
00
00
ENDCHAR

STARTCHAR C526=0x20e
ENCODING 26
SWIDTH 714 0
DWIDTH 8 0
BBX 8 16 0 -3
BITMAP
00
00
00
00
00
00
00
00
00
00
00
00
00
00
00
00
ENDCHAR

STARTCHAR C529=0x211
ENCODING 27
SWIDTH 714 0
DWIDTH 8 0
BBX 8 16 0 -3
BITMAP
00
00
38
44
44
48
7C
42
42
42
7C
40
40
40
00
00
ENDCHAR

STARTCHAR C530=0x212
ENCODING 28
SWIDTH 714 0
DWIDTH 8 0
BBX 8 16 0 -3
BITMAP
00
00
3F
21
20
20
20
20
20
20
70
00
00
00
00
00
ENDCHAR

STARTCHAR C531=0x213
ENCODING 29
SWIDTH 714 0
DWIDTH 8 0
BBX 8 16 0 -3
BITMAP
00
00
00
00
00
00
00
00
00
00
00
00
00
00
00
00
ENDCHAR

STARTCHAR C532=0x214
ENCODING 30
SWIDTH 714 0
DWIDTH 8 0
BBX 8 16 0 -3
BITMAP
00
00
00
00
00
00
00
00
00
00
00
00
00
00
00
00
ENDCHAR

STARTCHAR C533=0x215
ENCODING 31
SWIDTH 714 0
DWIDTH 8 0
BBX 8 16 0 -3
BITMAP
00
00
00
00
00
7F
00
7F
00
7F
00
00
00
00
00
00
ENDCHAR

STARTCHAR C534=0x216
ENCODING 32
SWIDTH 714 0
DWIDTH 8 0
BBX 8 16 0 -3
BITMAP
00
00
3C
42
42
42
3C
00
00
00
00
00
00
00
00
00
ENDCHAR

STARTCHAR C535=0x217
ENCODING 33
SWIDTH 714 0
DWIDTH 8 0
BBX 8 16 0 -3
BITMAP
00
00
3C
7E
7E
7E
3C
00
00
00
00
00
00
00
00
00
ENDCHAR

STARTCHAR C536=0x218
ENCODING 34
SWIDTH 714 0
DWIDTH 8 0
BBX 8 16 0 -3
BITMAP
00
00
00
00
00
18
3C
18
00
00
00
00
00
00
00
00
ENDCHAR

STARTCHAR C537=0x219
ENCODING 35
SWIDTH 714 0
DWIDTH 8 0
BBX 8 16 0 -3
BITMAP
00
00
00
00
00
2C
32
22
22
22
22
00
00
00
00
00
ENDCHAR

STARTCHAR C538=0x21a
ENCODING 36
SWIDTH 714 0
DWIDTH 8 0
BBX 8 16 0 -3
BITMAP
00
00
00
3E
3E
3E
3E
3E
00
00
00
00
00
00
00
00
ENDCHAR

STARTCHAR C539=0x21b
ENCODING 37
SWIDTH 714 0
DWIDTH 8 0
BBX 8 16 0 -3
BITMAP
00
00
0F
09
09
09
08
48
48
48
78
00
00
00
00
00
ENDCHAR

STARTCHAR C540=0x21c
ENCODING 38
SWIDTH 714 0
DWIDTH 8 0
BBX 8 16 0 -3
BITMAP
00
00
41
41
41
41
7F
08
08
08
08
00
00
00
00
00
ENDCHAR

STARTCHAR C541=0x21d
ENCODING 39
SWIDTH 714 0
DWIDTH 8 0
BBX 8 16 0 -3
BITMAP
00
00
01
01
01
01
7F
41
41
41
41
00
00
00
00
00
ENDCHAR

STARTCHAR C542=0x21e
ENCODING 40
SWIDTH 714 0
DWIDTH 8 0
BBX 8 16 0 -3
BITMAP
00
04
08
18
18
00
00
00
00
00
00
00
00
00
00
00
ENDCHAR

STARTCHAR C543=0x21f
ENCODING 41
SWIDTH 714 0
DWIDTH 8 0
BBX 8 16 0 -3
BITMAP
00
06
06
04
08
00
00
00
00
00
00
00
00
00
00
00
ENDCHAR

STARTCHAR C573=0x23d
ENCODING 42
SWIDTH 714 0
DWIDTH 8 0
BBX 8 16 0 -3
BITMAP
00
00
00
00
00
00
00
00
00
00
00
00
00
00
00
00
ENDCHAR

STARTCHAR C586=0x24a
ENCODING 43
SWIDTH 714 0
DWIDTH 8 0
BBX 8 16 0 -3
BITMAP
00
00
00
00
00
00
00
00
00
00
00
00
00
00
00
00
ENDCHAR

STARTCHAR C601=0x259
ENCODING 44
SWIDTH 714 0
DWIDTH 8 0
BBX 8 16 0 -3
BITMAP
00
00
00
00
00
00
00
00
00
00
00
00
00
00
00
00
ENDCHAR

STARTCHAR C621=0x26d
ENCODING 45
SWIDTH 714 0
DWIDTH 8 0
BBX 8 16 0 -3
BITMAP
00
00
00
00
00
00
00
00
00
00
00
00
00
00
00
00
ENDCHAR

STARTCHAR C622=0x26e
ENCODING 46
SWIDTH 714 0
DWIDTH 8 0
BBX 8 16 0 -3
BITMAP
00
00
00
00
00
00
00
00
00
00
00
00
00
00
00
00
ENDCHAR

STARTCHAR C627=0x273
ENCODING 47
SWIDTH 714 0
DWIDTH 8 0
BBX 8 16 0 -3
BITMAP
00
00
00
00
00
00
00
00
00
00
00
00
00
00
00
00
ENDCHAR

STARTCHAR C628=0x274
ENCODING 48
SWIDTH 714 0
DWIDTH 8 0
BBX 8 16 0 -3
BITMAP
00
22
1D
01
1D
23
41
41
41
23
1D
00
00
00
00
00
ENDCHAR

STARTCHAR C629=0x275
ENCODING 49
SWIDTH 714 0
DWIDTH 8 0
BBX 8 16 0 -3
BITMAP
00
22
1C
00
5E
61
41
41
41
41
41
00
00
00
00
00
ENDCHAR

STARTCHAR C632=0x278
ENCODING 50
SWIDTH 714 0
DWIDTH 8 0
BBX 8 16 0 -3
BITMAP
00
12
24
00
1C
22
41
41
41
22
1C
00
00
00
00
00
ENDCHAR

STARTCHAR C635=0x27b
ENCODING 51
SWIDTH 714 0
DWIDTH 8 0
BBX 8 16 0 -3
BITMAP
00
00
00
00
00
00
00
00
00
00
00
00
00
00
00
00
ENDCHAR

STARTCHAR C638=0x27e
ENCODING 52
SWIDTH 714 0
DWIDTH 8 0
BBX 8 16 0 -3
BITMAP
FF
FF
00
00
00
00
00
00
00
00
00
00
00
00
00
00
ENDCHAR

STARTCHAR C639=0x27f
ENCODING 53
SWIDTH 714 0
DWIDTH 8 0
BBX 8 16 0 -3
BITMAP
00
11
22
66
66
00
00
00
00
00
00
00
00
00
00
00
ENDCHAR

STARTCHAR C642=0x282
ENCODING 54
SWIDTH 714 0
DWIDTH 8 0
BBX 8 16 0 -3
BITMAP
08
14
41
41
41
41
41
49
49
55
22
00
00
00
00
00
ENDCHAR

STARTCHAR C643=0x283
ENCODING 55
SWIDTH 714 0
DWIDTH 8 0
BBX 8 16 0 -3
BITMAP
00
08
14
00
41
41
41
49
49
55
22
00
00
00
00
00
ENDCHAR

STARTCHAR C644=0x284
ENCODING 56
SWIDTH 714 0
DWIDTH 8 0
BBX 8 16 0 -3
BITMAP
08
14
41
41
22
14
08
08
08
08
08
00
00
00
00
00
ENDCHAR

STARTCHAR C645=0x285
ENCODING 57
SWIDTH 714 0
DWIDTH 8 0
BBX 8 16 0 -3
BITMAP
00
08
14
41
41
22
22
14
14
08
08
10
60
00
00
00
ENDCHAR

STARTCHAR C647=0x287
ENCODING 58
SWIDTH 714 0
DWIDTH 8 0
BBX 8 16 0 -3
BITMAP
00
00
33
33
22
44
00
00
00
00
00
00
00
00
00
00
ENDCHAR
ENDFONT
